<svg viewBox="0 0 32 32" xml:space="preserve" xmlns="http://www.w3.org/2000/svg"><g fill="none" stroke="#FFFFFF" stroke-linecap="round" stroke-linejoin="round" stroke-miterlimit="10" stroke-width="2" class="stroke-ffffff"></g><path d="M25 30H3a1 1 0 0 1-1-1V11a1 1 0 0 1 2 0v17h20V8H3a1 1 0 0 1 0-2h22a1 1 0 0 1 1 1v22a1 1 0 0 1-1 1z" fill="#ffffff" class="fill-000000"></path><path d="M29 22a1 1 0 0 1-1-1V4H11a1 1 0 0 1 0-2h18a1 1 0 0 1 1 1v18a1 1 0 0 1-1 1z" fill="#ffffff" class="fill-000000"></path></svg>