<svg viewBox="0 0 32 32" xml:space="preserve" xmlns="http://www.w3.org/2000/svg"><g fill="none" stroke="#FFFFFF" stroke-linecap="round" stroke-linejoin="round" stroke-miterlimit="10" stroke-width="2" class="stroke-ffffff"></g><path d="M29.018 17H2.982a.984.984 0 0 1-.908-.617 1.013 1.013 0 0 1 .213-1.09l11.789-12c.384-.391 1.005-.391 1.389 0s.384 1.023 0 1.414L5.354 15h23.663c.544 0 .983.448.983 1s-.439 1-.982 1zM14.772 29a.974.974 0 0 1-.695-.293l-7.86-8c-.384-.391-.384-1.023 0-1.414s1.005-.391 1.389 0l7.86 8a1.012 1.012 0 0 1 0 1.414.97.97 0 0 1-.694.293z" fill="#ffffff" class="fill-000000"></path></svg>